<svg xmlns="http://www.w3.org/2000/svg" viewBox="0 0 120 120" id="Lightning">
  <path fill="#ff3b00" d="m94.45,4h-49.28c-1.09,0-2.06.51-2.43,1.27l-26.57,54.07c-.62,1.26.63,2.6,2.43,2.6h33.65l-24.97,51.31c-1.07,2.2,2.85,3.8,4.76,1.95L103.46,45.73c1.31-1.27.09-3.11-2.05-3.11h-31.05L96.71,6.86c.95-1.29-.3-2.86-2.27-2.86Z" class="colorffff10 svgShape"></path>
  <path d="m26.82,117.09c.84.57,1.95.9,3.08.9,1.26,0,2.55-.41,3.54-1.38L104.88,47.07c1.09-1.06,1.41-2.54.84-3.87-.66-1.54-2.36-2.54-4.31-2.54h-27.18L98.34,7.92c.81-1.1.92-2.47.29-3.65-.75-1.4-2.35-2.27-4.19-2.27h-49.28c-1.87,0-3.53.93-4.24,2.37L14.35,58.51c-.54,1.1-.46,2.33.22,3.37.8,1.23,2.34,1.99,4.02,1.99h30.5l-23.63,48.61c-.81,1.66-.26,3.51,1.36,4.61Zm27.23-54.34c.29-.6.25-1.3-.12-1.86-.37-.56-1-.9-1.69-.9H18.59c-.23,0-.39-.05-.5-.1L44.52,6.05c.04-.05.27-.19.64-.19h49.28c.19,0,.34.03.44.07l-26.17,35.54c-.43.59-.49,1.36-.15,2.01.34.64,1.03,1.05,1.78,1.05h31.05c.16,0,.29.02.39.05L30.6,113.89c-.25.24-.62.25-.81.24-.27-.02-.49-.1-.63-.18l24.89-51.2Z" fill="#000000" class="color000000 svgShape"></path>
</svg>
